<svg xmlns="http://www.w3.org/2000/svg" xmlns:xlink="http://www.w3.org/1999/xlink" width="500" zoomAndPan="magnify" viewBox="0 0 375 374.999991" height="500" preserveAspectRatio="xMidYMid meet" version="1.0"><defs><g/><clipPath id="311d04fd7d"><path d="M 17.460938 150 L 117.210938 150 L 117.210938 251 L 17.460938 251 Z M 17.460938 150 " clip-rule="nonzero"/></clipPath><clipPath id="215ba8306b"><rect x="0" width="228" y="0" height="41"/></clipPath></defs><g clip-path="url(#311d04fd7d)"><path fill="#5e17eb" d="M 48.578125 150.203125 L 85.988281 150.203125 L 85.988281 172.765625 L 67.265625 191.613281 L 48.578125 172.765625 Z M 94.796875 219.378906 L 117.171875 219.378906 L 117.171875 181.648438 L 94.796875 181.648438 L 76.109375 200.535156 Z M 48.578125 228.261719 L 48.578125 250.824219 L 85.988281 250.824219 L 85.988281 228.261719 L 67.265625 209.417969 Z M 39.773438 181.648438 L 17.398438 181.648438 L 17.398438 219.378906 L 39.773438 219.378906 L 58.457031 200.535156 Z M 39.773438 181.648438 " fill-opacity="1" fill-rule="nonzero"/></g><g transform="matrix(1, 0, 0, 1, 126, 184)"><g clip-path="url(#215ba8306b)"><g fill="#5e17eb" fill-opacity="1"><g transform="translate(0.238063, 27.926683)"><g><path d="M 25.84375 -14.8125 L 25.84375 -9.078125 C 25.15625 -5.929688 23.65625 -3.550781 21.34375 -1.9375 C 19.039062 -0.320312 16.46875 0.484375 13.625 0.484375 C 10.050781 0.484375 7.007812 -0.847656 4.5 -3.515625 C 1.988281 -6.191406 0.734375 -9.421875 0.734375 -13.203125 C 0.734375 -17.054688 1.960938 -20.304688 4.421875 -22.953125 C 6.878906 -25.609375 9.945312 -26.9375 13.625 -26.9375 C 17.925781 -26.9375 21.328125 -25.425781 23.828125 -22.40625 L 19.875 -18.078125 C 18.46875 -20.347656 16.503906 -21.484375 13.984375 -21.484375 C 12.117188 -21.484375 10.53125 -20.675781 9.21875 -19.0625 C 7.90625 -17.445312 7.25 -15.492188 7.25 -13.203125 C 7.25 -10.960938 7.90625 -9.046875 9.21875 -7.453125 C 10.53125 -5.859375 12.117188 -5.0625 13.984375 -5.0625 C 15.515625 -5.0625 16.851562 -5.523438 18 -6.453125 C 19.144531 -7.390625 19.71875 -8.625 19.71875 -10.15625 L 13.625 -10.15625 L 13.625 -14.8125 Z M 25.84375 -14.8125 "/></g></g></g><g fill="#5e17eb" fill-opacity="1"><g transform="translate(26.810069, 27.926683)"><g><path d="M 15.359375 -26.453125 L 26.03125 0 L 19.5625 0 L 17.609375 -5.296875 L 7.53125 -5.296875 L 5.578125 0 L -0.890625 0 L 9.78125 -26.453125 Z M 15.546875 -10.578125 L 12.59375 -18.28125 L 12.53125 -18.28125 L 9.59375 -10.578125 Z M 15.546875 -10.578125 "/></g></g></g><g fill="#5e17eb" fill-opacity="1"><g transform="translate(51.939675, 27.926683)"><g><path d="M 23.796875 0 L 22.546875 -15.671875 L 22.375 -15.671875 L 16.96875 -0.15625 L 13.375 -0.15625 L 7.953125 -15.671875 L 7.796875 -15.671875 L 6.546875 0 L 0.515625 0 L 2.890625 -26.453125 L 9.296875 -26.453125 L 15.171875 -11.1875 L 21.03125 -26.453125 L 27.453125 -26.453125 L 29.8125 0 Z M 23.796875 0 "/></g></g></g><g fill="#5e17eb" fill-opacity="1"><g transform="translate(82.261878, 27.926683)"><g><path d="M 17.0625 -26.453125 L 17.0625 -21.15625 L 7.953125 -21.15625 L 7.953125 -15.90625 L 16.671875 -15.90625 L 16.671875 -10.609375 L 7.953125 -10.609375 L 7.953125 -5.296875 L 17.0625 -5.296875 L 17.0625 0 L 1.921875 0 L 1.921875 -26.453125 Z M 17.0625 -26.453125 "/></g></g></g><g fill="#5e17eb" fill-opacity="1"><g transform="translate(100.852661, 27.926683)"><g/></g></g><g fill="#5e17eb" fill-opacity="1"><g transform="translate(109.60315, 27.926683)"><g><path d="M 7.953125 -10.609375 L 7.953125 0 L 1.921875 0 L 1.921875 -26.453125 L 7.953125 -26.453125 L 7.953125 -15.90625 L 16.484375 -15.90625 L 16.484375 -26.453125 L 22.515625 -26.453125 L 22.515625 0 L 16.484375 0 L 16.484375 -10.609375 Z M 7.953125 -10.609375 "/></g></g></g><g fill="#5e17eb" fill-opacity="1"><g transform="translate(134.027585, 27.926683)"><g><path d="M 15.359375 -26.453125 L 26.03125 0 L 19.5625 0 L 17.609375 -5.296875 L 7.53125 -5.296875 L 5.578125 0 L -0.890625 0 L 9.78125 -26.453125 Z M 15.546875 -10.578125 L 12.59375 -18.28125 L 12.53125 -18.28125 L 9.59375 -10.578125 Z M 15.546875 -10.578125 "/></g></g></g><g fill="#5e17eb" fill-opacity="1"><g transform="translate(156.432452, 27.926683)"><g><path d="M 10.203125 0 L -0.890625 -26.453125 L 5.90625 -26.453125 L 12.5625 -9.078125 L 19.234375 -26.453125 L 26.03125 -26.453125 L 14.9375 0 Z M 10.203125 0 "/></g></g></g><g fill="#5e17eb" fill-opacity="1"><g transform="translate(181.562057, 27.926683)"><g><path d="M 17.0625 -26.453125 L 17.0625 -21.15625 L 7.953125 -21.15625 L 7.953125 -15.90625 L 16.671875 -15.90625 L 16.671875 -10.609375 L 7.953125 -10.609375 L 7.953125 -5.296875 L 17.0625 -5.296875 L 17.0625 0 L 1.921875 0 L 1.921875 -26.453125 Z M 17.0625 -26.453125 "/></g></g></g><g fill="#5e17eb" fill-opacity="1"><g transform="translate(200.15284, 27.926683)"><g><path d="M 7.953125 -16.421875 L 7.953125 0 L 1.921875 0 L 1.921875 -26.453125 L 7.953125 -26.453125 L 18.46875 -10.03125 L 18.53125 -10.03125 L 18.53125 -26.453125 L 24.5625 -26.453125 L 24.5625 0 L 18.53125 0 L 8.015625 -16.421875 Z M 7.953125 -16.421875 "/></g></g></g></g></g></svg>